<?xml version="1.0" standalone="no"?>
<!DOCTYPE svg PUBLIC "-//W3C//DTD SVG 20010904//EN"
 "http://www.w3.org/TR/2001/REC-SVG-20010904/DTD/svg10.dtd">
<svg version="1.0" xmlns="http://www.w3.org/2000/svg"
 width="260.000000pt" height="260.000000pt" viewBox="0 0 260.000000 260.000000"
 preserveAspectRatio="xMidYMid meet">
<metadata>
Created by potrace 1.14, written by Peter Selinger 2001-2017
</metadata>
<g transform="translate(0.000000,260.000000) scale(0.100000,-0.100000)"
fill="#000000" stroke="none">
<path d="M1228 2513 c-79 -96 -98 -123 -139 -198 -17 -33 -35 -64 -39 -68 -4
-5 -26 4 -47 20 -22 15 -78 45 -124 67 -46 21 -91 42 -100 47 -9 4 -35 13 -58
19 -23 6 -48 13 -55 16 -10 4 -17 -10 -25 -43 -21 -93 -25 -129 -26 -255 l0
-128 -95 0 c-52 -1 -113 -3 -135 -6 -64 -8 -197 -33 -202 -38 -6 -5 41 -144
69 -203 22 -47 62 -119 93 -166 16 -25 16 -25 -52 -62 -82 -45 -171 -109 -237
-169 l-50 -45 20 -22 c39 -44 155 -130 243 -180 l91 -52 -19 -31 c-59 -97 -82
-142 -114 -222 -58 -149 -60 -140 30 -161 55 -12 120 -18 215 -18 l138 0 1
-105 c0 -58 2 -114 3 -125 8 -60 19 -125 28 -162 12 -50 11 -50 153 4 81 30
148 65 227 117 l27 18 32 -64 c33 -66 149 -226 193 -267 l26 -25 35 34 c47 45
150 191 186 262 l29 58 68 -42 c82 -50 171 -91 258 -118 36 -11 67 -20 69 -20
4 0 23 83 31 135 11 65 12 85 13 192 l1 103 103 -1 c57 0 114 2 128 5 13 3 43
7 65 10 23 3 62 10 88 17 42 10 45 13 40 38 -18 78 -98 252 -158 343 -18 27
-18 28 1 35 71 29 267 166 318 222 l19 22 -49 45 c-68 61 -158 125 -238 169
-42 23 -65 41 -60 48 3 7 18 30 33 52 46 69 115 228 134 306 5 25 3 27 -32 35
-20 4 -44 9 -52 11 -62 13 -160 23 -245 23 l-100 0 2 112 c1 62 -2 133 -7 158
-4 25 -11 62 -14 83 -3 21 -11 47 -16 57 -9 18 -12 18 -67 1 -74 -23 -220 -91
-280 -131 -25 -17 -49 -28 -53 -23 -4 4 -20 33 -36 63 -16 30 -31 57 -34 60
-3 3 -18 25 -34 49 -27 41 -54 75 -117 143 -14 15 -29 28 -32 28 -3 0 -34 -35
-69 -77z"/>
</g>
</svg>
